# AST/ASF file generated using VICON BodyLanguage
# -----------------------------------------------
:version 1.10
:name VICON
:units
  mass 1.0
  length 0.45
  angle deg
:documentation
   .ast/.asf automatically generated from VICON data using
   VICON BodyBuilder and BodyLanguage model FoxedUp or BRILLIANT.MOD
:root
   order TX TY TZ RX RY RZ
   axis XYZ
   position 0 0 0  
   orientation 0 0 0 
:bonedata
  begin
     id 1 
     name lhipjoint
     direction 0.702568 -0.596508 0.388042 
     length 2.56661 
     axis 0 0 0  XYZ
  end
  begin
     id 2 
     name lfemur
     direction 0.34202 -0.939693 0  
     length 6.58374  
     axis 0 0 20  XYZ
    dof rx ry rz
    limits (-160.0 20.0)
           (-70.0 70.0)
           (-60.0 70.0)
  end
  begin
     id 3 
     name ltibia
     direction 0.34202 -0.939693 0   
     length 6.62538   
     axis 0 0 20   XYZ
    dof rx
    limits (-10.0 170.0)
  end
  begin
     id 4 
     name lfoot
     direction 0.10455 -0.287249 0.952133   
     length 2.26699   
     axis -90 7.62852e-016 20   XYZ
    dof rx rz
    limits (-45.0 90.0)
           (-70.0 20.0)
  end
  begin
     id 5 
     name ltoes
     direction 1.53572e-011 -4.22322e-011 1   
     length 1.12949   
     axis -90 7.62852e-016 20   XYZ
    dof rx
    limits (-90.0 20.0)
  end
  begin
     id 6 
     name rhipjoint
     direction -0.728055 -0.574632 0.373811   
     length 2.66432  
     axis 0 0 0  XYZ 
  end
  begin
     id 7 
     name rfemur
     direction -0.34202 -0.939693 0   
     length 6.66732   
     axis 0 0 -20   XYZ
    dof rx ry rz
    limits (-160.0 20.0)
           (-70.0 70.0)
           (-70.0 60.0)
  end
  begin
     id 8 
     name rtibia
     direction -0.34202 -0.939693 0   
     length 6.59288   
     axis 0 0 -20   XYZ
    dof rx
    limits (-10.0 170.0)
 end
 begin
     id 9 
     name rfoot
     direction -0.119193 -0.327479 0.93731   
     length 2.38061  
     axis -90 -7.62852e-016 -20   XYZ
    dof rx rz
    limits (-45.0 90.0)
           (-20.0 70.0)
  end
  begin
     id 10 
     name rtoes
     direction -1.53547e-011 -4.21827e-011 1   
     length 1.17899   
     axis -90 -7.62852e-016 -20   XYZ
    dof rx
    limits (-90.0 20.0)
  end
  begin
     id 11 
     name lowerback
     direction -0.000416114 0.999912 -0.0132284   
     length 2.12109   
     axis 0 0 0   XYZ
    dof rx ry rz
    limits (-20.0 45.0)
           (-30.0 30.0)
           (-30.0 30.0)
  end
  begin
     id 12 
     name upperback
     direction -0.00136371 0.99809 0.0617608   
     length 2.10067   
     axis 0 0 0   XYZ
    dof rx ry rz
    limits (-20.0 45.0)
           (-30.0 30.0)
           (-30.0 30.0)
  end
  begin
     id 13 
     name thorax
     direction -3.43026e-005 0.997776 0.0666515   
     length 2.10618   
     axis 0 0 0   XYZ
    dof rx ry rz
    limits (-20.0 45.0)
           (-30.0 30.0)
           (-30.0 30.0)
  end
  begin
     id 14 
     name lowerneck
     direction 0.0398646 0.998418 0.0396592   
     length 1.83817   
     axis 0 0 0   XYZ
    dof rx ry rz
    limits (-20.0 45.0)
           (-30.0 30.0)
           (-30.0 30.0)
  end
  begin
     id 15 
     name upperneck
     direction -0.0367268 0.961527 -0.272244   
     length 1.81975   
     axis 0 0 0   XYZ
    dof rx ry rz
    limits (-20.0 45.0)
           (-30.0 30.0)
           (-30.0 30.0)
  end
  begin
     id 16
     name head
     direction -0.0182665 0.99536 -0.0944669  
     length 1.86026  
     axis 0 0 0   XYZ
    dof rx ry rz
    limits (-20.0 45.0)
           (-30.0 30.0)
           (-30.0 30.0)
  end
  begin
     id 17 
     name lclavicle
     direction 0.924239 0.361045 0.124212  
     length 3.26878  
     axis 0 0 0   XYZ
    dof ry rz
    limits (-20.0 10.0)
           (0.0 20.0)
  end
  begin
     id 18 
     name lhumerus
     direction 1 -4.48968e-011 -2.56583e-027   
     length 4.58538   
     axis 180 -30 -90   XYZ
    dof rx ry rz
    limits (-60.0 90.0)
           (-90.0 90.0)
           (-90.0 90.0)
  end
  begin
     id 19
     name lradius
     direction 1 -4.4898e-011 -5.50375e-027   
     length 2.68935   
     axis 180 -30 -90   XYZ
    dof rx
    limits (-10.0 170.0)
  end
  begin
     id 20
     name lwrist
     direction 1 -4.48939e-011 -1.48955e-026   
     length 1.34468   
     axis 9.0955e-015 90 90   XYZ
    dof ry
    limits (-180.0 0.0)
 end
  begin
     id 21 
     name lhand
     direction 1 -4.48936e-011 -2.97907e-026   
     length 0.585058   
     axis 1.90115e-014 90 90   XYZ
    dof rx rz
    limits (-90.0 90.0)
           (-45.0 45.0)
  end
  begin
     id 22 
     name lfingers
     direction 1 -4.49082e-011 -5.96235e-026   
     length 0.471689   
     axis 3.80223e-014 90 90   XYZ
    dof rx
    limits (0.0 90.0)
  end
  begin
     id 23
     name lthumb
     direction 0.707107 -6.3489e-011 0.707107   
     length 0.677253   
     axis -90 45 -3.84942e-014   XYZ
    dof rx rz
    limits (-45.0 45.0)
           (-45.0 45.0)
  end
  begin
     id 24 
     name rclavicle
     direction -0.923098 0.371783 0.0983239   
     length 3.19656  
     axis 0 0 0   XYZ 
    dof ry rz
    limits (-10.0 20.0)
           (-20.0 0.0)
  end
  begin
     id 25 
     name rhumerus
     direction -1 -4.48976e-011 -2.5492e-027  
     length 4.4745   
     axis 180 30 90   XYZ
    dof rx ry rz
    limits (-90.0 60.0)
           (-90.0 90.0)
           (-90.0 90.0)
  end
  begin
     id 26 
     name rradius
     direction -1 -4.48941e-011 -4.36555e-027   
     length 2.93896   
     axis 180 30 90   XYZ
    dof rx
    limits (-10.0 170.0)
  end
  begin
     id 27 
     name rwrist
     direction -1 -4.49044e-011 -1.49032e-026   
     length 1.46948   
     axis 9.0955e-015 -90 -90   XYZ
    dof ry
    limits (-180.0 0.0)
  end
  begin
     id 28
     name rhand
     direction -1 -4.48826e-011 -2.97749e-026   
     length 0.405092   
     axis 1.90115e-014 -90 -90   XYZ
    dof rx rz
    limits (-90.0 90.0)
           (-45.0 45.0)
  end
  begin
     id 29
     name rfingers
     direction -1 -4.49209e-011 -5.96602e-026   
     length 0.326596   
     axis 3.80223e-014 -90 -90   XYZ
    dof rx
    limits (0.0 90.0)
  end
  begin
     id 30
     name rthumb
     direction -0.707107 -6.34776e-011 0.707107   
     length 0.468928   
     axis -90 -45 3.84942e-014   XYZ
    dof rx rz
    limits (-45.0 45.0)
           (-45.0 45.0)
  end
:hierarchy
  begin
    root lhipjoint rhipjoint lowerback
    lhipjoint lfemur
    lfemur ltibia
    ltibia lfoot
    lfoot ltoes
    rhipjoint rfemur
    rfemur rtibia
    rtibia rfoot
    rfoot rtoes
    lowerback upperback
    upperback thorax
    thorax lowerneck lclavicle rclavicle
    lowerneck upperneck
    upperneck head
    lclavicle lhumerus
    lhumerus lradius
    lradius lwrist
    lwrist lhand lthumb
    lhand lfingers
    rclavicle rhumerus
    rhumerus rradius
    rradius rwrist
    rwrist rhand rthumb
    rhand rfingers
  end

#!OML:ASF H:\Punching\Project 1\Capture day 1\Session 1\female.ASF
:FULLY-SPECIFIED
:DEGREES
88
root 0.643384 14.5633 -1.08489 11.9836 -0.387697 -3.68055
lowerback -6.51062 3.72356 7.85196
upperback -8.10474 4.68495 -2.03543
thorax -4.07697 1.90442 -6.36675
lowerneck -13.5359 2.53203 9.17798
upperneck 37.9816 2.17135 -2.62157
head 15.9153 1.93708 -2.37691
rclavicle -1.19271e-014 5.56597e-015
rhumerus -12.3158 26.377 -79.7937
rradius 133.512
rwrist -14.1662
rhand -32.0134 16.5515
rfingers 7.12502
rthumb -5.26163 -13.3632
lclavicle -1.19271e-014 5.56597e-015
lhumerus -9.44458 -11.0084 50.8184
lradius 142.14
lwrist -0.155244
lhand -32.3542 4.78639
lfingers 7.12502
lthumb -5.59068 34.6926
rfemur 3.28204 -1.51848 21.2247
rtibia 33.9547
rfoot -27.8942 -27.7164
rtoes -27.6815
lfemur -51.9712 -1.55819 -14.2168
ltibia 51.8132
lfoot -9.64874 7.06509
ltoes 6.85013
89
root 0.714127 14.5868 -0.969498 11.5748 0.387378 -3.45694
lowerback -6.45759 3.75239 7.64418
upperback -8.10756 4.73792 -1.98221
thorax -4.11653 1.94208 -6.19434
lowerneck -13.3961 2.16347 8.87237
upperneck 38.209 1.67286 -2.47611
head 15.9457 1.71574 -2.34896
rclavicle 1.55549e-014 -6.75868e-015
rhumerus -13.1213 25.9149 -79.4649
rradius 133.558
rwrist -14.2766
rhand -32.1519 16.7724
rfingers 7.12502
rthumb -5.39535 -13.1389
lclavicle 1.55549e-014 -6.75868e-015
lhumerus -9.45356 -12.0069 52.0083
lradius 141.907
lwrist -0.392
lhand -32.2618 4.64162
lfingers 7.12502
lthumb -5.50147 34.5502
rfemur 2.94978 -2.21993 20.6196
rtibia 36.1151
rfoot -26.1933 -27.2833
rtoes -27.7326
lfemur -51.0761 -1.80515 -15.0351
ltibia 51.5791
lfoot -9.94532 6.46663
ltoes 7.0477
90
root 0.784553 14.6173 -0.855909 11.1268 1.11114 -3.19585
lowerback -6.35135 3.77406 7.3881
upperback -8.09962 4.78629 -1.92936
thorax -4.1783 1.97911 -5.99906
lowerneck -13.2442 1.80616 8.57751
upperneck 38.4786 1.19014 -2.33702
head 16.0003 1.50299 -2.32272
rclavicle 8.44835e-015 1.19271e-014
rhumerus -13.9632 25.4667 -79.1938
rradius 133.595
rwrist -14.4177
rhand -32.2575 17.0273
rfingers 7.12502
rthumb -5.49732 -12.8813
lclavicle 8.44835e-015 1.19271e-014
lhumerus -9.48906 -13.0256 53.2615
lradius 141.699
lwrist -0.57642
lhand -32.0812 4.51036
lfingers 7.12502
lthumb -5.32712 34.4234
rfemur 2.41374 -2.80993 19.9838
rtibia 38.5784
rfoot -24.0553 -26.8278
rtoes -26.9027
lfemur -50.008 -2.08305 -15.8591
ltibia 51.1805
lfoot -10.1993 5.96337
ltoes 7.36281
91
root 0.854095 14.6538 -0.74528 10.6573 1.79715 -2.87997
lowerback -6.20085 3.78294 7.07304
upperback -8.08555 4.82138 -1.88831
thorax -4.26353 2.01131 -5.78723
lowerneck -13.0744 1.46423 8.30465
upperneck 38.7782 0.727076 -2.20646
head 16.0718 1.30153 -2.30035
rclavicle 6.87298e-014 -1.59028e-015
rhumerus -14.8358 25.032 -78.9961
rradius 133.632
rwrist -14.5881
rhand -32.3287 17.2348
rfingers 7.12502
rthumb -5.56605 -12.6721
lclavicle 6.87298e-014 -1.59028e-015
lhumerus -9.54301 -14.0528 54.5433
lradius 141.524
lwrist -0.737782
lhand -31.8795 4.36176
lfingers 7.12502
lthumb -5.13234 34.2796
rfemur 1.64401 -3.28665 19.3177
rtibia 41.3506
rfoot -21.5216 -26.2014
rtoes -25.1229
lfemur -48.8051 -2.41462 -16.6989
ltibia 50.6287
lfoot -10.3964 5.55277
ltoes 7.73322
92
root 0.922056 14.6942 -0.638398 10.1745 2.46413 -2.50347
lowerback -6.01141 3.77078 6.69279
upperback -8.06366 4.83109 -1.86116
thorax -4.36948 2.03315 -5.55771
lowerneck -12.8868 1.14184 8.05568
upperneck 39.0895 0.288286 -2.08225
head 16.1508 1.1133 -2.28018
rclavicle -3.66758e-014 -5.1684e-015
rhumerus -15.7273 24.6317 -78.8698
rradius 133.683
rwrist -14.72
rhand -32.4241 17.2893
rfingers 7.12502
rthumb -5.65816 -12.6152
lclavicle -3.66758e-014 -5.1684e-015
lhumerus -9.60017 -15.0896 55.8376
lradius 141.361
lwrist -0.929189
lhand -31.7119 4.22088
lfingers 7.12502
lthumb -4.97051 34.1426
rfemur 0.636225 -3.66878 18.627
rtibia 44.4371
rfoot -18.6754 -25.319
rtoes -22.5827
lfemur -47.5017 -2.82204 -17.5563
ltibia 49.9489
lfoot -10.534 5.23691
ltoes 8.12476
93
root 0.987968 14.7359 -0.53584 9.69103 3.11444 -2.08204
lowerback -5.80119 3.7387 6.26257
upperback -8.02873 4.81431 -1.84498
thorax -4.47964 2.0443 -5.31425
lowerneck -12.6863 0.841975 7.83046
upperneck 39.3924 -0.122848 -1.96267
head 16.228 0.939182 -2.26055
rclavicle -4.43787e-014 -2.66371e-014
rhumerus -16.607 24.2596 -78.8011
rradius 133.749
rwrist -14.8084
rhand -32.5388 17.1975
rfingers 7.12502
rthumb -5.76896 -12.704
lclavicle -4.43787e-014 -2.66371e-014
lhumerus -9.65146 -16.1271 57.1266
lradius 141.209
lwrist -1.16024
lhand -31.6384 4.08979
lfingers 7.12502
lthumb -4.89954 34.0131
rfemur -0.611567 -3.96917 17.9306
rtibia 47.8359
rfoot -15.7725 -24.1158
rtoes -19.7336
lfemur -46.1434 -3.2992 -18.4188
ltibia 49.1802
lfoot -10.6126 5.01873
ltoes 8.52081
94
root 1.05107 14.7763 -0.438356 9.22626 3.76043 -1.63464
lowerback -5.59341 3.68612 5.79669
upperback -7.97968 4.76806 -1.83362
thorax -4.57946 2.04331 -5.05641
lowerneck -12.4708 0.566355 7.62393
upperneck 39.6638 -0.503193 -1.84366
head 16.2902 0.779401 -2.2378
rclavicle -9.88954e-015 -7.95139e-015
rhumerus -17.4561 23.9103 -78.7711
rradius 133.831
rwrist -14.841
rhand -32.6837 16.9785
rfingers 7.12502
rthumb -5.9088 -12.9191
lclavicle -9.88954e-015 -7.95139e-015
lhumerus -9.68181 -17.166 58.4045
lradius 141.061
lwrist -1.42353
lhand -31.6736 3.98267
lfingers 7.12502
lthumb -4.93359 33.9052
rfemur -2.09956 -4.22146 17.2477
rtibia 51.5356
rfoot -13.1593 -22.6225
rtoes -17.1181
lfemur -44.7886 -3.83256 -19.2734
ltibia 48.3687
lfoot -10.6398 4.88271
ltoes 8.87418
95
root 1.11072 14.8128 -0.346262 8.78744 4.41513 -1.18734
lowerback -5.4035 3.61253 5.3147
upperback -7.91481 4.69061 -1.81741
thorax -4.65761 2.02894 -4.78353
lowerneck -12.2391 0.312845 7.43193
upperneck 39.8901 -0.853436 -1.72701
head 16.3291 0.632131 -2.21185
rclavicle -1.14798e-014 -1.15295e-014
rhumerus -18.2599 23.5705 -78.7588
rradius 133.923
rwrist -14.8268
rhand -32.8441 16.6935
rfingers 7.12502
rthumb -6.06366 -13.1998
lclavicle -1.14798e-014 -1.15295e-014
lhumerus -9.68002 -18.2114 59.6756
lradius 140.91
lwrist -1.6942
lhand -31.8087 3.90481
lfingers 7.12502
lthumb -5.064 33.8243
rfemur -3.80632 -4.47121 16.5991
rtibia 55.5071
rfoot -11.1187 -20.9657
rtoes -15.1739
lfemur -43.4792 -4.40266 -20.1011
ltibia 47.5609
lfoot -10.631 4.80749
ltoes 9.19335
96
root 1.16585 14.844 -0.259809 8.3742 5.0848 -0.766145
lowerback -5.23066 3.51537 4.82531
upperback -7.82986 4.57917 -1.7809
thorax -4.71017 1.99977 -4.48391
lowerneck -12.0074 0.0849789 7.24857
upperneck 40.0677 -1.16656 -1.61517
head 16.3463 0.498812 -2.1817
rclavicle 4.4329e-014 6.16232e-015
rhumerus -18.991 23.2333 -78.7383
rradius 134.013
rwrist -14.789
rhand -33.0055 16.43
rfingers 7.12502
rthumb -6.21951 -13.4587
lclavicle 4.4329e-014 6.16232e-015
lhumerus -9.64558 -19.2463 60.9458
lradius 140.771
lwrist -1.91081
lhand -31.9769 3.8444
lfingers 7.12502
lthumb -5.22643 33.76
rfemur -5.71209 -4.73524 16.0153
rtibia 59.7032
rfoot -9.7579 -19.2848
rtoes -14.1382
lfemur -42.2395 -4.97727 -20.8807
ltibia 46.7898
lfoot -10.5959 4.75936
ltoes 9.46493
